name Run_30002_GRF.mot
datacolumns 19
datarows 31
range 0.514 0.544
endheader

time	     ground_force_vx	     ground_force_vy	     ground_force_vz	     ground_force_px	     ground_force_py	     ground_force_pz	   l_ground_force_vx	   l_ground_force_vy	   l_ground_force_vz	   l_ground_force_px	   l_ground_force_py	   l_ground_force_pz	     ground_torque_x	     ground_torque_y	     ground_torque_z	   l_ground_torque_x	   l_ground_torque_y	   l_ground_torque_z	
0.514	          0.00000000	          0.00000000	          0.00000000	          0.00000000	          0.00000000	          0.00000000	          0.00000000	          0.00000000	          0.00000000	          0.00000000	          0.00000000	          0.00000000	          0.00000000	          0.00000000	          0.00000000	          0.00000000	          0.00000000	          0.00000000	
0.515	         -5.48330700	         11.02636800	         -2.24391400	          1.07897300	          0.00000000	         -0.29473500	          0.00000000	          0.00000000	          0.00000000	          0.00000000	          0.00000000	          0.00000000	          0.00000000	         -0.87853900	          0.00000000	          0.00000000	          0.00000000	          0.00000000	
0.516	         -6.15610900	         12.68396200	         -2.57968200	          1.07543400	          0.00000000	         -0.29648600	          0.00000000	          0.00000000	          0.00000000	          0.00000000	          0.00000000	          0.00000000	          0.00000000	         -0.71285200	          0.00000000	          0.00000000	          0.00000000	          0.00000000	
0.517	         -6.91017300	         14.58398800	         -2.94390100	          1.07219400	          0.00000000	         -0.29786300	          0.00000000	          0.00000000	          0.00000000	          0.00000000	          0.00000000	          0.00000000	          0.00000000	         -0.53849400	          0.00000000	          0.00000000	          0.00000000	          0.00000000	
0.518	         -7.75036000	         16.75521700	         -3.33829800	          1.06924800	          0.00000000	         -0.29894200	          0.00000000	          0.00000000	          0.00000000	          0.00000000	          0.00000000	          0.00000000	          0.00000000	         -0.35570500	          0.00000000	          0.00000000	          0.00000000	          0.00000000	
0.519	         -8.68047000	         19.22864500	         -3.76456300	          1.06659300	          0.00000000	         -0.29978800	          0.00000000	          0.00000000	          0.00000000	          0.00000000	          0.00000000	          0.00000000	          0.00000000	         -0.16475900	          0.00000000	          0.00000000	          0.00000000	          0.00000000	
0.52	         -9.70296100	         22.03747600	         -4.22433800	          1.06422300	          0.00000000	         -0.30045600	          0.00000000	          0.00000000	          0.00000000	          0.00000000	          0.00000000	          0.00000000	         -0.00000000	          0.03402700	         -0.00000000	          0.00000000	          0.00000000	          0.00000000	
0.521	        -10.81867600	         25.21705400	         -4.71918400	          1.06212800	          0.00000000	         -0.30099100	          0.00000000	          0.00000000	          0.00000000	          0.00000000	          0.00000000	          0.00000000	         -0.00000000	          0.24029800	         -0.00000000	          0.00000000	          0.00000000	          0.00000000	
0.522	        -12.02656700	         28.80478500	         -5.25056600	          1.06029600	          0.00000000	         -0.30143000	          0.00000000	          0.00000000	          0.00000000	          0.00000000	          0.00000000	          0.00000000	         -0.00000000	          0.45366100	         -0.00000000	          0.00000000	          0.00000000	          0.00000000	
0.523	        -13.32344300	         32.83999300	         -5.81981600	          1.05871200	          0.00000000	         -0.30180000	          0.00000000	          0.00000000	          0.00000000	          0.00000000	          0.00000000	          0.00000000	         -0.00000000	          0.67368400	         -0.00000000	          0.00000000	          0.00000000	          0.00000000	
0.524	        -14.70376200	         37.36375800	         -6.42810800	          1.05735800	          0.00000000	         -0.30212700	          0.00000000	          0.00000000	          0.00000000	          0.00000000	          0.00000000	          0.00000000	         -0.00000000	          0.89989600	         -0.00000000	          0.00000000	          0.00000000	          0.00000000	
0.525	        -16.15944900	         42.41872800	         -7.07642200	          1.05621200	          0.00000000	         -0.30242700	          0.00000000	          0.00000000	          0.00000000	          0.00000000	          0.00000000	          0.00000000	         -0.00000000	          1.13179000	         -0.00000000	          0.00000000	          0.00000000	          0.00000000	
0.526	        -17.67979800	         48.04887000	         -7.76550700	          1.05525200	          0.00000000	         -0.30271300	          0.00000000	          0.00000000	          0.00000000	          0.00000000	          0.00000000	          0.00000000	         -0.00000000	          1.36882200	         -0.00000000	          0.00000000	          0.00000000	          0.00000000	
0.527	        -19.25144000	         54.29922900	         -8.49584100	          1.05445600	          0.00000000	         -0.30299700	          0.00000000	          0.00000000	          0.00000000	          0.00000000	          0.00000000	          0.00000000	         -0.00000000	          1.61041400	         -0.00000000	          0.00000000	          0.00000000	          0.00000000	
0.528	        -20.85839300	         61.21561100	         -9.26758900	          1.05380000	          0.00000000	         -0.30328400	          0.00000000	          0.00000000	          0.00000000	          0.00000000	          0.00000000	          0.00000000	         -0.00000000	          1.85595400	         -0.00000000	          0.00000000	          0.00000000	          0.00000000	
0.529	        -22.48222000	         68.84427600	        -10.08055900	          1.05326000	          0.00000000	         -0.30358100	          0.00000000	          0.00000000	          0.00000000	          0.00000000	          0.00000000	          0.00000000	         -0.00000000	          2.10479800	         -0.00000000	          0.00000000	          0.00000000	          0.00000000	
0.53	        -24.10229700	         77.23156700	        -10.93415600	          1.05281400	          0.00000000	         -0.30389100	          0.00000000	          0.00000000	          0.00000000	          0.00000000	          0.00000000	          0.00000000	         -0.00000000	          2.35627300	         -0.00000000	          0.00000000	          0.00000000	          0.00000000	
0.531	        -25.69617100	         86.42349200	        -11.82733900	          1.05243800	          0.00000000	         -0.30421600	          0.00000000	          0.00000000	          0.00000000	          0.00000000	          0.00000000	          0.00000000	         -0.00000000	          2.60967900	         -0.00000000	          0.00000000	          0.00000000	          0.00000000	
0.532	        -27.24004600	         96.46529400	        -12.75857100	          1.05211400	          0.00000000	         -0.30455800	          0.00000000	          0.00000000	          0.00000000	          0.00000000	          0.00000000	          0.00000000	         -0.00000000	          2.86428800	         -0.00000000	          0.00000000	          0.00000000	          0.00000000	
0.533	        -28.70935100	        107.40092500	        -13.72577500	          1.05182000	          0.00000000	         -0.30491700	          0.00000000	          0.00000000	          0.00000000	          0.00000000	          0.00000000	          0.00000000	         -0.00000000	          3.11935500	         -0.00000000	          0.00000000	          0.00000000	          0.00000000	
0.534	        -30.07939900	        119.27245300	        -14.72629300	          1.05154000	          0.00000000	         -0.30529500	          0.00000000	          0.00000000	          0.00000000	          0.00000000	          0.00000000	          0.00000000	         -0.00000000	          3.37411000	         -0.00000000	          0.00000000	          0.00000000	          0.00000000	
0.535	        -31.32611300	        132.11943100	        -15.75685000	          1.05125700	          0.00000000	         -0.30569100	          0.00000000	          0.00000000	          0.00000000	          0.00000000	          0.00000000	          0.00000000	         -0.00000000	          3.62776800	         -0.00000000	          0.00000000	          0.00000000	          0.00000000	
0.536	        -32.42678500	        145.97818000	        -16.81351700	          1.05095800	          0.00000000	         -0.30610500	          0.00000000	          0.00000000	          0.00000000	          0.00000000	          0.00000000	          0.00000000	         -0.00000000	          3.87953300	         -0.00000000	          0.00000000	          0.00000000	          0.00000000	
0.537	        -33.36086300	        160.88092000	        -17.89168500	          1.05063000	          0.00000000	         -0.30653800	          0.00000000	          0.00000000	          0.00000000	          0.00000000	          0.00000000	          0.00000000	         -0.00000000	          4.12859800	         -0.00000000	          0.00000000	          0.00000000	          0.00000000	
0.538	        -34.11069500	        176.85496500	        -18.98605000	          1.05026300	          0.00000000	         -0.30698800	          0.00000000	          0.00000000	          0.00000000	          0.00000000	          0.00000000	          0.00000000	         -0.00000000	          4.37414700	         -0.00000000	          0.00000000	          0.00000000	          0.00000000	
0.539	        -34.66225100	        193.92170700	        -20.09059500	          1.04984800	          0.00000000	         -0.30745600	          0.00000000	          0.00000000	          0.00000000	          0.00000000	          0.00000000	          0.00000000	         -0.00000000	          4.61536700	         -0.00000000	          0.00000000	          0.00000000	          0.00000000	
0.54	        -35.00573700	        212.09561200	        -21.19861000	          1.04938000	          0.00000000	         -0.30794000	          0.00000000	          0.00000000	          0.00000000	          0.00000000	          0.00000000	          0.00000000	         -0.00000000	          4.85144200	         -0.00000000	          0.00000000	          0.00000000	          0.00000000	
0.541	        -35.13613100	        231.38322400	        -22.30269200	          1.04885300	          0.00000000	         -0.30844100	          0.00000000	          0.00000000	          0.00000000	          0.00000000	          0.00000000	          0.00000000	         -0.00000000	          5.08156300	         -0.00000000	          0.00000000	          0.00000000	          0.00000000	
0.542	        -35.05355500	        251.78205900	        -23.39478100	          1.04826500	          0.00000000	         -0.30895700	          0.00000000	          0.00000000	          0.00000000	          0.00000000	          0.00000000	          0.00000000	         -0.00000000	          5.30493100	         -0.00000000	          0.00000000	          0.00000000	          0.00000000	
0.543	        -34.76349600	        273.27960200	        -24.46620600	          1.04761500	          0.00000000	         -0.30948700	          0.00000000	          0.00000000	          0.00000000	          0.00000000	          0.00000000	          0.00000000	         -0.00000000	          5.52076000	         -0.00000000	          0.00000000	          0.00000000	          0.00000000	
0.544	        -34.27688600	        295.85244800	        -25.50774400	          1.04690200	          0.00000000	         -0.31003200	          0.00000000	          0.00000000	          0.00000000	          0.00000000	          0.00000000	          0.00000000	         -0.00000000	          5.72828300	         -0.00000000	          0.00000000	          0.00000000	          0.00000000	
